<svg width="180" height="180" viewBox="0 0 180 180" fill="none" xmlns="http://www.w3.org/2000/svg">
<path d="M4.08381 14H175.916C176.734 14 177.518 14.3249 178.097 14.9032C178.675 15.4815 179 16.2659 179 17.0838V163.566C179 163.971 178.92 164.372 178.765 164.746C178.61 165.121 178.383 165.46 178.097 165.747C177.81 166.033 177.47 166.26 177.096 166.415C176.722 166.57 176.321 166.65 175.916 166.65H4.08382C3.67885 166.65 3.27784 166.57 2.9037 166.415C2.52955 166.26 2.18959 166.033 1.90323 165.747C1.61687 165.46 1.38972 165.121 1.23474 164.746C1.07977 164.372 1 163.971 1 163.566V17.0838C1 16.2659 1.3249 15.4815 1.90323 14.9032C2.48156 14.3249 3.26593 14 4.08381 14Z" fill="white" stroke="#8725E8" stroke-width="1.4" stroke-miterlimit="10"/>
<path d="M110.098 22.3591H164.803C164.951 22.3591 165.098 22.3882 165.235 22.4449C165.371 22.5015 165.496 22.5846 165.6 22.6893C165.705 22.7939 165.788 22.9182 165.845 23.055C165.901 23.1918 165.93 23.3384 165.93 23.4864V26.0279C165.93 26.3269 165.812 26.6136 165.6 26.8251C165.389 27.0365 165.102 27.1553 164.803 27.1553H110.098C109.799 27.1553 109.512 27.0365 109.301 26.8251C109.09 26.6136 108.971 26.3269 108.971 26.0279V23.4864C108.971 23.3384 109 23.1918 109.057 23.055C109.113 22.9182 109.196 22.7939 109.301 22.6893C109.406 22.5846 109.53 22.5015 109.667 22.4449C109.804 22.3882 109.95 22.3591 110.098 22.3591Z" fill="#8725E8" stroke="#8725E8" stroke-width="1.4" stroke-miterlimit="10"/>
<path d="M1 35.8325H179" stroke="#8725E8" stroke-width="1.4" stroke-miterlimit="10"/>
<path d="M150.303 56.5708H166.135H150.303Z" fill="#8725E8"/>
<path d="M150.303 56.5708H166.135" stroke="#8725E8" stroke-width="1.4" stroke-miterlimit="10" stroke-linecap="round"/>
<path d="M129.739 56.5708H145.571H129.739Z" fill="#8725E8"/>
<path d="M129.739 56.5708H145.571" stroke="#8725E8" stroke-width="1.4" stroke-miterlimit="10" stroke-linecap="round"/>
<path d="M108.766 56.5708H124.598H108.766Z" fill="#8725E8"/>
<path d="M108.766 56.5708H124.598" stroke="#8725E8" stroke-width="1.4" stroke-miterlimit="10" stroke-linecap="round"/>
<path d="M76.0166 143H103.396C104.481 143 105.335 143.853 105.335 144.939V147.421C105.335 148.507 104.481 149.36 103.396 149.36H75.939C74.8532 149.36 74 148.507 74 147.421V144.939C74 143.931 74.8532 143.078 76.0166 143Z" fill="#EE3F47"/>
<path d="M130.017 143H157.473C158.559 143 159.412 143.853 159.412 144.939V147.421C159.412 148.507 158.559 149.36 157.473 149.36H129.939C128.853 149.36 128 148.507 128 147.421V144.939C128.078 143.931 128.931 143.078 130.017 143Z" fill="#F2F2F2"/>
<path d="M22.0166 143H49.4732C50.559 143 51.4122 143.853 51.4122 144.939V147.421C51.4122 148.507 50.559 149.36 49.4732 149.36H21.939C20.8532 149.36 20 148.507 20 147.421V144.939C20.0776 143.931 20.9307 143.078 22.0166 143Z" fill="#F2F2F2"/>
<path d="M54.8446 117.266C48.7762 112.654 49.6258 115.081 48.2907 107.557V107.435C47.9266 105.858 47.6839 102.581 47.6839 102.581C47.3198 99.0611 45.742 98.3326 42.7078 97.7258C36.6395 96.6335 30.207 96.5121 24.3813 98.3326C21.4685 99.0611 21.4685 101.852 21.2258 104.401C20.9831 106.586 20.7403 108.77 20.4976 111.076C20.4976 111.076 20.3762 113.261 19.4053 113.746C17.7061 114.96 16.007 116.295 14.3079 117.509C9.69585 124.063 58.4856 123.941 54.8446 117.266Z" fill="#D6D7D6"/>
<path d="M22.0752 99.9119C22.0752 99.9119 27.1727 101.125 34.6975 101.125C43.3145 101.125 47.0769 100.155 47.0769 100.155" stroke="#999999" stroke-width="0.358678" stroke-miterlimit="10"/>
<path d="M44.5278 111.076L43.4355 100.76" stroke="#999999" stroke-width="0.358678" stroke-miterlimit="10"/>
<path d="M19.6475 113.138C19.6475 113.138 21.4681 115.444 34.5757 115.566C45.1347 115.687 48.8971 114.473 49.7467 113.502" stroke="#999999" stroke-width="0.358678" stroke-miterlimit="10"/>
<path d="M20.498 109.863C21.9544 110.591 25.7168 111.562 34.4552 111.683C42.8296 111.683 46.9561 111.076 48.6552 110.227" stroke="#999999" stroke-width="0.358678" stroke-miterlimit="10"/>
<path d="M14.4297 117.265C14.4297 117.265 14.7938 121.391 34.334 121.27C54.7237 121.149 54.7237 117.265 54.7237 117.265" stroke="#999999" stroke-width="0.358678" stroke-miterlimit="10"/>
<path d="M143.61 102.471C149.471 102.471 154.221 102.471 154.221 100.706C154.221 99.7947 149.471 99.0557 143.61 99.0557C137.75 99.0557 133 99.7947 133 100.706C133 102.471 137.75 102.471 143.61 102.471Z" fill="#999999"/>
<path d="M158.465 106.247C156.932 105.422 155.4 105.54 154.221 106.012V100.824C154.221 101.767 149.505 102.475 143.61 102.475C137.716 102.475 133 101.767 133 100.824V124.639C133 125.582 137.716 126.289 143.61 126.289C149.505 126.289 154.221 125.582 154.221 124.639V119.334C154.81 119.687 155.518 119.805 155.989 119.805C157.168 119.805 158.111 119.216 158.583 118.744C159.644 117.919 160.351 116.622 160.587 115.089C161.53 109.077 159.998 106.955 158.465 106.247ZM158.583 114.736C158.465 115.679 157.993 116.504 157.286 117.094C156.579 117.683 155.636 118.155 154.221 116.74V108.252C154.928 107.78 156.107 107.308 157.522 108.016C158.701 108.605 159.172 111.199 158.583 114.736Z" fill="#D6D7D6"/>
<path d="M154.457 106.012V108.134" stroke="#999999" stroke-width="0.348412" stroke-miterlimit="10"/>
<path d="M154.457 117.095V119.335" stroke="#999999" stroke-width="0.348412" stroke-miterlimit="10"/>
<path d="M89.8393 79.3672C94.6774 79.594 97.5829 75.9963 97.7059 73C97.663 73.0292 97.6217 73.0706 97.5829 73.1306C97.4726 73.2989 97.3058 73.4365 97.1461 73.5656C95.9476 74.537 94.5203 74.9337 93.0376 75.1762C91.4596 75.4338 89.8721 75.4413 88.2856 75.2775C86.8453 75.1293 85.4255 74.8702 84.0773 74.3157C83.378 74.0284 82.7019 73.7007 82.2324 73.0701C82.2324 75.2775 84.841 79.1333 89.8393 79.3672Z" fill="black"/>
<path d="M106.854 76.6295C104.129 74.9156 100.791 73.7249 97.7058 73C96.2805 80.9153 83.7054 79.9429 82.2318 73.0696C79.1414 73.1573 75.7755 75.1066 73.0126 76.6053C69.3368 78.4478 64.3763 92.8099 64.7668 93.3775C67.4596 97.2923 69.0154 97.75 73.5754 99.775C73.728 109.216 73.4998 116.05 73.4917 122.24C73.4892 124.278 76.3911 125.268 77.9812 125.942C84.0727 128.001 89.9455 128.626 96.2063 127.308C97.9833 127.064 99.6988 125.989 101.248 125.148C103.101 124.14 105.335 124.09 107.276 123.362C107.74 123.181 107.84 122.926 107.816 122.344C107.537 115.296 107.264 109.938 106.561 99.8279C108.929 99.1756 113.293 97.8025 115.06 94.3328C115.385 93.6956 110.532 78.6691 106.854 76.6295ZM79.3787 122.24C79.3883 122.275 79.3913 122.314 79.3994 122.349C79.3918 122.313 79.3863 122.276 79.3787 122.24Z" fill="#8725E8"/>
<path d="M80.9355 73.1477C80.9355 73.1477 81.5098 79.7181 89.4342 80.2131C97.3587 80.7081 99.0001 73.3014 99.0001 73.3014" stroke="black" stroke-width="0.676229" stroke-miterlimit="10"/>
<path d="M109.488 79.9761C109.488 79.9761 108.187 90.6972 105.929 94.9351" stroke="black" stroke-width="0.676229" stroke-miterlimit="10"/>
<path d="M106.664 99.8118C106.386 97.9653 105.583 94.6933 105.866 90.657" stroke="black" stroke-width="0.676229" stroke-miterlimit="10"/>
<path d="M70.3711 79.8784C70.3711 79.8784 71.9642 90.7936 74.2313 95.0315" stroke="black" stroke-width="0.676229" stroke-miterlimit="10"/>
<path d="M73.5361 99.7675C73.8449 98.0178 74.5371 94.6086 74.4409 89.4497" stroke="black" stroke-width="0.676229" stroke-miterlimit="10"/>
</svg>
