<svg width="180" height="180" viewBox="0 0 180 180" fill="none" xmlns="http://www.w3.org/2000/svg">
<path d="M4.08381 14H175.916C176.734 14 177.518 14.3249 178.097 14.9032C178.675 15.4815 179 16.2659 179 17.0838V163.566C179 163.971 178.92 164.372 178.765 164.746C178.61 165.121 178.383 165.46 178.097 165.747C177.81 166.033 177.47 166.26 177.096 166.415C176.722 166.57 176.321 166.65 175.916 166.65H4.08382C3.67885 166.65 3.27784 166.57 2.9037 166.415C2.52955 166.26 2.18959 166.033 1.90323 165.747C1.61687 165.46 1.38972 165.121 1.23474 164.746C1.07977 164.372 1 163.971 1 163.566V17.0838C1 16.2659 1.3249 15.4815 1.90323 14.9032C2.48156 14.3249 3.26593 14 4.08381 14Z" fill="white" stroke="#8725E8" stroke-width="1.4" stroke-miterlimit="10"/>
<path d="M110.098 22.3591H164.803C164.951 22.3591 165.098 22.3882 165.235 22.4449C165.371 22.5015 165.496 22.5846 165.6 22.6893C165.705 22.7939 165.788 22.9182 165.845 23.055C165.901 23.1918 165.93 23.3384 165.93 23.4864V26.0279C165.93 26.3269 165.812 26.6136 165.6 26.8251C165.389 27.0365 165.102 27.1553 164.803 27.1553H110.098C109.799 27.1553 109.512 27.0365 109.301 26.8251C109.09 26.6136 108.971 26.3269 108.971 26.0279V23.4864C108.971 23.3384 109 23.1918 109.057 23.055C109.113 22.9182 109.196 22.7939 109.301 22.6893C109.406 22.5846 109.53 22.5015 109.667 22.4449C109.804 22.3882 109.95 22.3591 110.098 22.3591Z" stroke="#8725E8" stroke-width="1.4" stroke-miterlimit="10"/>
<path d="M1 35.8325H179" stroke="#8725E8" stroke-width="1.4" stroke-miterlimit="10"/>
<path d="M15.6764 63.6963H38.9627C39.5353 63.6963 39.9991 64.653 39.9991 65.8271V75.1039C39.9991 76.278 39.5353 77.2275 38.9627 77.2275H15.6764C15.1038 77.2275 14.6328 76.278 14.6328 75.1039V65.8271C14.6328 64.653 15.1038 63.6963 15.6764 63.6963ZM16.8795 83.9894H36.9334C37.4973 83.9913 38.0374 84.2167 38.4354 84.6161C38.8335 85.0155 39.057 85.5563 39.057 86.1202V95.397C39.057 95.9602 38.8332 96.5004 38.435 96.8986C38.0367 97.2968 37.4966 97.5206 36.9334 97.5206H16.7853C16.5018 97.5206 16.2211 97.4641 15.9597 97.3543C15.6983 97.2445 15.4614 97.0837 15.263 96.8812C15.0646 96.6787 14.9085 96.4386 14.804 96.1751C14.6995 95.9115 14.6487 95.6298 14.6545 95.3463L14.7487 86.1057C14.7634 85.5478 14.9921 85.017 15.3874 84.623C15.7827 84.2291 16.3143 84.0022 16.8722 83.9894H16.8795ZM44.5071 83.9894H64.5393C65.1032 83.9913 65.6433 84.2167 66.0413 84.6161C66.4393 85.0155 66.6628 85.5563 66.6628 86.1202V95.397C66.6628 95.9602 66.4391 96.5004 66.0409 96.8986C65.6426 97.2968 65.1025 97.5206 64.5393 97.5206H44.5071C43.9432 97.5206 43.4024 97.2971 43.003 96.899C42.6036 96.501 42.3782 95.9609 42.3763 95.397V86.1202C42.3763 85.5551 42.6008 85.0131 43.0004 84.6135C43.4 84.2139 43.942 83.9894 44.5071 83.9894Z" fill="#F2F2F2"/>
<path d="M66.5541 77.2203V65.8054C66.566 65.3138 66.3837 64.8373 66.0468 64.4791C65.6789 64.1391 65.1923 63.9569 64.6915 63.9718H41.811C41.3303 63.9726 40.8674 64.1536 40.5137 64.4791C40.3414 64.6526 40.2072 64.8602 40.1198 65.0886C40.0324 65.317 39.9938 65.5612 40.0064 65.8054V75.3576C39.9969 75.846 39.7967 76.3113 39.4487 76.6539C39.1006 76.9966 38.6322 77.1895 38.1438 77.1913H14.6328" stroke="#8725E8" stroke-width="1.4" stroke-miterlimit="10"/>
<path d="M16.7563 127.764H64.5393C65.1032 127.763 65.6433 127.537 66.0413 127.138C66.4393 126.738 66.6628 126.198 66.6628 125.634V102.688C66.6628 102.125 66.4391 101.585 66.0409 101.186C65.6426 100.788 65.1025 100.564 64.5393 100.564H16.7563C16.1931 100.564 15.653 100.788 15.2547 101.186C14.8565 101.585 14.6328 102.125 14.6328 102.688V125.634C14.6328 126.198 14.8562 126.738 15.2543 127.138C15.6523 127.537 16.1924 127.763 16.7563 127.764Z" fill="#F2F2F2"/>
<path d="M52.1167 70.1464L49.3916 70.5523L51.363 72.4657L50.9064 75.198L53.3343 73.9007L55.7912 75.198L55.3056 72.4657L57.277 70.5523L54.5736 70.1464L53.3343 67.6968L52.1167 70.1464Z" fill="#222222"/>
<path d="M122.041 70.4929C129.254 70.8311 133.586 65.4672 133.769 61C133.705 61.0436 133.644 61.1052 133.586 61.1947C133.421 61.4457 133.173 61.6509 132.934 61.8432C131.148 63.2915 129.02 63.883 126.809 64.2445C124.456 64.6285 122.09 64.6398 119.724 64.3955C117.577 64.1746 115.46 63.7883 113.45 62.9616C112.408 62.5332 111.4 62.0447 110.699 61.1045C110.699 64.3955 114.589 70.1441 122.041 70.4929Z" fill="black"/>
<path d="M147.408 66.4112C143.344 63.8559 138.369 62.0807 133.769 61C131.644 72.801 112.896 71.3512 110.699 61.1037C106.091 61.2345 101.073 64.1408 96.9531 66.3752C91.4728 69.1221 84.0772 90.5348 84.6593 91.381C88.6741 97.2176 90.9936 97.9001 97.7921 100.919C98.0197 114.995 97.6794 125.184 97.6674 134.413C97.6637 137.45 101.991 138.926 104.361 139.932C113.443 143.001 122.199 143.934 131.533 141.969C134.183 141.604 136.74 140.002 139.049 138.747C141.812 137.246 145.143 137.171 148.037 136.085C148.729 135.815 148.877 135.435 148.843 134.568C148.426 124.059 148.019 116.071 146.971 100.998C150.501 100.025 157.008 97.9782 159.642 92.8052C160.126 91.8553 152.89 69.4535 147.408 66.4127V66.4112ZM106.445 134.412C106.459 134.465 106.464 134.522 106.476 134.575C106.464 134.521 106.456 134.466 106.445 134.412Z" fill="#8725E8"/>
<path d="M108.765 61.2202C108.765 61.2202 109.621 71.016 121.436 71.754C133.251 72.4921 135.698 61.4494 135.698 61.4494" stroke="black" stroke-width="0.75" stroke-miterlimit="10"/>
<path d="M151.335 71.4009C151.335 71.4009 149.394 87.3851 146.029 93.7034L151.335 71.4009Z" fill="black"/>
<path d="M151.335 71.4009C151.335 71.4009 149.394 87.3851 146.029 93.7034" stroke="black" stroke-width="0.75" stroke-miterlimit="10"/>
<path d="M147.124 100.974C146.711 98.2211 145.513 93.3428 145.935 87.325L147.124 100.974Z" fill="black"/>
<path d="M147.124 100.974C146.711 98.2211 145.513 93.3428 145.935 87.325" stroke="black" stroke-width="0.75" stroke-miterlimit="10"/>
<path d="M93.0146 71.2551C93.0146 71.2551 95.3898 87.5286 98.7699 93.8469L93.0146 71.2551Z" fill="black"/>
<path d="M93.0146 71.2551C93.0146 71.2551 95.3898 87.5286 98.7699 93.8469" stroke="black" stroke-width="0.75" stroke-miterlimit="10"/>
<path d="M97.7334 100.908C98.1938 98.2992 99.2259 93.2164 99.0824 85.5249L97.7334 100.908Z" fill="black"/>
<path d="M97.7334 100.908C98.1938 98.2992 99.2259 93.2164 99.0824 85.5249" stroke="black" stroke-width="0.75" stroke-miterlimit="10"/>
<path d="M132.849 98.9409C134.34 90.1054 124.357 90.0369 122.519 96.2834C119.615 88.6054 110.351 91.7561 112.256 99.1396C113.934 105.304 122.526 109.578 122.526 109.578C122.526 109.578 131.304 105.208 132.849 98.9409Z" fill="white"/>
<path d="M135.5 87.5H109.5V113.5H135.5V87.5Z" stroke="white" stroke-dasharray="2 2"/>
<path d="M112 87.5C112 86.1193 110.881 85 109.5 85C108.119 85 107 86.1193 107 87.5C107 88.8807 108.119 90 109.5 90C110.881 90 112 88.8807 112 87.5Z" fill="white"/>
<path d="M138 87.5C138 86.1193 136.881 85 135.5 85C134.119 85 133 86.1193 133 87.5C133 88.8807 134.119 90 135.5 90C136.881 90 138 88.8807 138 87.5Z" fill="white"/>
<path d="M112 113.5C112 112.119 110.881 111 109.5 111C108.119 111 107 112.119 107 113.5C107 114.881 108.119 116 109.5 116C110.881 116 112 114.881 112 113.5Z" fill="white"/>
<path d="M138 113.5C138 112.119 136.881 111 135.5 111C134.119 111 133 112.119 133 113.5C133 114.881 134.119 116 135.5 116C136.881 116 138 114.881 138 113.5Z" fill="white"/>
</svg>
