<svg width="180" height="180" viewBox="0 0 180 180" fill="none" xmlns="http://www.w3.org/2000/svg">
<path d="M79.8398 140.968L117.959 136.603L146.466 150.27L108.497 155.427L79.8398 140.968Z" fill="#F5F5F5"/>
<path d="M120.877 142.099V146.079L147.694 156.36L169.695 150.854V147.803L147.76 151.982L120.877 142.099Z" fill="#FAEDDE"/>
<path d="M120.877 142.099L147.76 151.982L169.695 147.803L139.766 138.583L120.877 142.099Z" fill="#8725E8"/>
<path d="M120.877 142.099V146.079L147.694 156.36L147.76 151.982L120.877 142.099Z" fill="#F7DEBF"/>
<path d="M98.5317 138.376C98.7391 138.054 99.0682 137.961 99.3207 137.94L97.7694 137.704C97.4693 137.659 97.2741 138.012 97.4713 138.244L98.4592 139.404C98.4137 139.158 98.3512 138.656 98.5317 138.376Z" fill="#D6D7D6"/>
<path d="M114.032 145.283L99.6126 138.03L98.5488 139.469L113.153 146.85L114.032 145.283Z" fill="#8725E8"/>
<path d="M99.4807 137.964L99.3212 137.94C99.0687 137.961 98.7396 138.054 98.5322 138.376C98.3517 138.656 98.4142 139.158 98.4597 139.404L98.4905 139.44L98.549 139.469L99.6128 138.03L99.4807 137.964Z" fill="#42C0BD"/>
<path d="M111.674 144.086C111.328 143.886 110.847 144.074 110.598 144.507C110.35 144.939 110.428 145.452 110.773 145.652C110.781 145.656 110.791 145.655 110.799 145.659L110.8 145.661L113.153 146.85L114.033 145.283L111.674 144.086Z" fill="#F7ABA8"/>
<path d="M113.523 146.919C114.02 146.919 114.423 146.514 114.423 146.015C114.423 145.515 114.02 145.111 113.523 145.111C113.026 145.111 112.622 145.515 112.622 146.015C112.622 146.514 113.026 146.919 113.523 146.919Z" fill="#F5928F"/>
<path d="M116.188 141.079C116.188 141.079 113.663 140.443 113.397 139.701L156.405 138.793C156.405 138.793 155.574 140.217 154.406 140.351L116.188 141.079Z" fill="#999999"/>
<path d="M112.153 136.231L113.397 139.701C113.472 139.91 113.672 140.048 113.894 140.043L155.949 139.102C156.421 139.092 156.631 138.502 156.274 138.193L152.757 135.153C152.662 135.071 152.54 135.026 152.414 135.028L112.631 135.538C112.277 135.543 112.033 135.896 112.153 136.231Z" fill="#D6D7D6"/>
<path d="M0 129H180" stroke="#8725E8" stroke-miterlimit="10"/>
<path d="M173.268 114.119C173.268 114.119 159.762 84.692 154.953 77.6209C154.768 77.348 154.578 77.0831 154.385 76.826C151.218 72.6062 146.388 69.9621 141.173 69.2501L130.683 67.8181C121.58 66.5996 102.745 68.6412 102.745 68.6412L93.8177 72.3111C87.5632 74.6911 80.583 88.3869 80.583 88.3869C80.583 88.3869 68.3303 105.666 66.0546 109.169C63.779 112.672 53.1592 122.8 53.1592 122.8L58.1206 131.438C75.4842 131.927 93.1676 102.417 93.1676 102.417V100.866C92.5607 104.902 97.3819 128.578 97.3819 128.578L128.766 128.115L129.09 121.43C132.655 121.963 132.194 122.139 132.194 122.139C133.007 128.578 130.607 132.091 130.607 132.091C130.607 132.091 157.308 129.959 166.108 130.008C174.907 130.057 175.362 127.903 175.362 127.903C178.855 122.44 173.268 114.119 173.268 114.119ZM146.693 117.779L149.258 106.206C149.258 106.206 153.632 114.665 154.774 115.621C154.774 115.621 152.859 117.256 146.693 117.779Z" fill="#0043AD"/>
<path d="M129.322 120.575C129.322 120.575 129.145 119.228 130.913 119.247C130.913 119.247 141.469 118.686 143.089 118.182C144.708 117.677 146.591 117.488 146.591 117.488" stroke="#06080A" stroke-miterlimit="10"/>
<path d="M154.774 115.364C154.774 115.364 159.208 112.428 166.468 115.288" stroke="#06080A" stroke-miterlimit="10"/>
<path d="M148.921 106.314C148.921 106.314 143.595 98.6903 142.934 95.5158C142.934 95.5158 139.322 80.3839 145.261 75.8682C145.261 75.8682 148.196 73.6934 151.48 74.231" stroke="#06080A" stroke-miterlimit="10"/>
<path d="M135.772 119.086C135.772 119.086 137.194 123.116 137.392 125.483C137.627 128.303 136.058 131.48 136.058 131.48" stroke="#06080A" stroke-miterlimit="10"/>
<path d="M55.6943 120.689C55.6943 120.689 64.2836 120.392 63.2224 130.305" stroke="#06080A" stroke-miterlimit="10"/>
<path d="M105.166 74.5597C105.166 74.5597 105.334 79.8303 109.299 81.6806C113.264 83.5309 116.199 83.8727 121.977 79.4378C126.685 75.8243 127.955 67.5613 127.955 67.5613" stroke="#06080A" stroke-miterlimit="10"/>
<path d="M59.8858 147.954L88.0572 138.168C88.539 138 88.8638 137.532 88.8638 137.005C88.8638 136.421 88.4664 135.918 87.9141 135.803L50.1191 127.943C49.9418 127.906 49.7587 127.912 49.5839 127.96L19.9281 136.111C18.7374 136.438 18.7629 138.2 19.9626 138.49L59.242 147.985C59.4553 148.037 59.6781 148.026 59.8858 147.954Z" fill="#999999"/>
<path d="M105.489 73.2651L108.236 78.8463C108.236 78.8463 111.241 82.5987 116.238 80.382C121.236 78.1652 125.303 73.6584 126.117 67.4749L121.003 56.9315L118.737 56.1731L105.489 73.2651Z" fill="#B55331"/>
<path d="M104.856 71.8872L106.457 75.2016C106.457 75.2016 108.731 77.2324 111.12 75.9193C115.803 73.3456 118.841 71.2212 120.867 68.006C121.509 66.9859 121.991 62.9899 121.991 61.9402L122.87 60.9241L121.003 56.2817L118.737 55.5234L104.856 71.8872Z" fill="#993114"/>
<path d="M95.1807 43.4723C95.1807 43.4723 95.5885 50.4606 95.4267 51.377C95.2649 52.2935 95.5876 53.9999 96.1539 55.137C96.1539 55.137 95.1591 59.8035 97.6429 63.5001C97.8395 63.7929 98.1436 64.4959 98.4553 65.2846C99.0448 66.7767 99.4609 68.3284 99.8043 69.8962C100.157 71.5062 101.225 73.9123 104.461 73.8582C109.315 73.7769 116.732 68.7219 118.805 66.5357C119.899 65.382 120.989 62.9619 120.261 58.657C119.533 54.3522 122.122 48.6665 122.122 48.6665C122.122 48.6665 124.145 33.3965 111.928 33.5589C99.7115 33.7214 95.1807 43.4723 95.1807 43.4723Z" fill="#B55331"/>
<path d="M119.492 52.3735C119.492 52.3735 121.7 49.9235 123.269 50.2735C124.838 50.6235 125.303 50.5068 125.535 52.3735C125.768 54.2402 124.606 56.2842 124.373 57.5372C124.141 58.7903 123.396 60.4237 121.531 60.1903C119.667 59.957 118.969 58.732 118.853 57.9736C118.737 57.2153 119.492 52.3735 119.492 52.3735Z" fill="#B55331"/>
<path d="M93.8161 44.9329C94.4618 45.5931 95.3574 46.1033 96.5851 46.1105C96.5851 46.1105 98.6659 45.5977 98.7869 44.3411C98.9345 42.8075 100.156 43.7771 100.156 43.7771C100.156 43.7771 99.6795 46.4605 101.524 47.2188C103.369 47.9772 104.619 46.8688 104.619 46.8688C104.619 46.8688 104.202 46.4021 104.619 46.0521C105.09 45.6557 107.471 46.831 108.128 44.9151C108.593 43.5597 110.297 42.6887 111.723 42.9901C112.954 43.2504 113.664 43.9495 113.664 44.9306C113.664 45.9938 114.378 47.7438 115.985 48.2688C117.591 48.7938 118.583 49.7975 118.59 51.9439V54.6856L120.361 54.394L120.795 52.8087C121.255 51.1254 123.012 50.0965 124.667 50.6324C124.69 50.6399 124.713 50.6476 124.737 50.6556C124.737 50.6556 125.651 48.8344 125.634 46.2288C125.627 45.0827 125.685 43.9364 125.843 42.8013C126.22 40.0984 126.51 35.4893 124.554 33.4519C121.697 30.4768 119.912 30.1851 118.246 30.3018C116.58 30.4185 114.14 30.7855 113.069 30.2811C111.998 29.7768 109.855 28.8434 106.88 29.4268C103.905 30.0101 102.567 32.0902 97.2602 34.7567C94.9342 35.7876 93.604 38.1887 92.9135 39.9369C92.2414 41.6387 92.5386 43.6267 93.8161 44.9329Z" fill="#562408"/>
<path d="M104.98 128.578C104.98 128.578 104.941 130.439 103.718 130.637C102.495 130.835 102.771 127.548 102.771 127.548C102.771 127.548 103.6 124.261 104.152 123.747C104.704 123.232 108.215 120.539 108.215 120.539C108.215 120.539 111.095 118.242 112.791 118.44C114.487 118.638 118.905 120.539 121.745 120.777C124.585 121.014 130.778 120.618 130.778 120.618C130.778 120.618 132.632 120.222 132.435 125.251C132.237 130.281 131.133 130.122 131.133 130.122C131.133 130.122 128.056 129.766 126.597 130.835C125.137 131.904 123.283 132.538 120.404 132.538C117.524 132.538 113.658 132.221 113.658 132.221C113.658 132.221 111.805 132.775 110.7 132.063L109.596 131.35C109.596 131.35 108.452 132.261 106.992 130.558C106.992 130.558 105.257 130.795 104.98 128.578Z" fill="#B55331"/>
<path d="M109.714 122.44C109.714 122.44 109.063 123.443 108.176 123.984C108.176 123.984 105.769 125.687 105.414 126.123C105.059 126.558 105.017 127.548 105.447 129.026" stroke="#591300" stroke-miterlimit="10"/>
<path d="M110.463 125.806L107.505 128.578C107.505 128.578 106.921 129.196 107.354 130.424" stroke="#591300" stroke-miterlimit="10"/>
<path d="M112.278 128.578C112.278 128.578 110.262 129.539 109.976 131.438" stroke="#591300" stroke-miterlimit="10"/>
<path d="M46.2285 126.101L48.871 123.422C48.871 123.422 49.7785 123.154 50.7927 123.422C51.807 123.69 53.3284 121.894 53.3284 121.894C53.3284 121.894 54.3694 121.305 55.5705 122.779C55.5705 122.779 56.1043 123.529 57.6524 123.582C59.2005 123.636 60.1614 125.646 60.1614 125.646C60.1614 125.646 61.0155 127.682 61.923 127.923C62.8305 128.165 64.2985 129.076 64.2718 130.469C64.2451 131.862 63.9248 133.175 63.1241 133.443C62.3234 133.711 61.7361 133.792 61.0422 133.309C61.0422 133.309 58.4264 135.025 55.0366 133.658C55.0366 133.658 55.5438 136.23 53.7021 136.686C53.7021 136.686 52.7946 137.114 52.3141 136.364L50.6593 137.061L46.2285 126.101Z" fill="#B55331"/>
<path d="M47.4707 131.019C47.4707 131.019 49.1381 128.566 49.7253 128.245C50.3125 127.923 51.3802 126.048 51.6738 124.788" stroke="#591300" stroke-miterlimit="10"/>
<path d="M52.7297 136.27C52.7297 136.27 52.1804 134.301 51.6733 133.631C51.4753 133.369 51.352 132.833 51.2753 132.276C51.129 131.215 50.9103 130.167 50.6633 129.125C50.5177 128.511 50.4465 127.778 50.6589 127.124" stroke="#591300" stroke-miterlimit="10"/>
<path d="M55.8101 127.124C55.8101 127.124 54.8136 128.058 54.6357 130.642C54.5472 131.926 55.347 133.485 55.347 133.485" stroke="#591300" stroke-miterlimit="10"/>
<path d="M61.636 129.25C61.636 129.25 60.0498 129.738 60.0547 130.978C60.0581 131.869 60.6965 132.738 61.244 133.013" stroke="#591300" stroke-miterlimit="10"/>
<path d="M2.30602 101.487L45.8975 108.226C46.277 108.285 46.5967 108.544 46.7364 108.905L61.2857 146.535C61.6005 147.349 60.8827 148.186 60.04 147.988L15.6631 137.54C15.3241 137.46 15.0443 137.22 14.9122 136.894L1.14839 102.973C0.831359 102.191 1.47965 101.359 2.30602 101.487Z" fill="#D6D7D6"/>
<path d="M95.7048 71.8872C95.7048 71.8872 91.0873 74.1543 92.8096 83.8367C94.5318 93.5191 93.1672 102.417 93.1672 102.417" stroke="#06080A" stroke-miterlimit="10"/>
<path d="M106.457 65.7156C105.961 66.1331 104.793 66.024 104.239 66.3208C103.454 66.7415 102.956 67.3228 102.162 66.9191C101.037 66.347 100.249 66.5059 100.249 66.5059" stroke="#591300" stroke-miterlimit="10"/>
<path d="M123.254 53.3865C123.331 53.0756 123.099 52.6871 122.789 52.6094H122.635C122.248 52.6871 121.938 52.9979 121.861 53.3865C121.783 53.775 121.861 54.1636 122.015 54.5522C122.17 54.9407 122.402 55.2516 122.557 55.6401C122.635 55.8733 122.712 56.1064 122.635 56.3395C122.48 56.7281 122.248 57.1166 121.938 57.3498C121.628 57.5829 121.474 58.0492 121.551 58.4378" stroke="#591300" stroke-miterlimit="10"/>
<path d="M103.541 52.2529C104.974 51.7673 106.457 51.5015 107.978 51.5015C108.999 51.5427 109.932 52.0032 110.957 52.3828" stroke="#591300" stroke-width="2" stroke-miterlimit="10"/>
<path d="M105.099 55.1368C106.094 53.9275 107.88 53.7737 109.924 55.1771" stroke="#591300" stroke-miterlimit="10"/>
<path d="M107.036 56.0827C107.556 56.0827 107.978 55.6593 107.978 55.1371C107.978 54.6148 107.556 54.1914 107.036 54.1914C106.516 54.1914 106.094 54.6148 106.094 55.1371C106.094 55.6593 106.516 56.0827 107.036 56.0827Z" fill="#591300"/>
<path d="M95.0557 52.3825C96.0077 51.8429 97.7497 51.8159 99.0943 52.5775" stroke="#591300" stroke-width="2" stroke-miterlimit="10"/>
<path d="M95.7705 55.1684C96.869 53.9602 98.526 54.1768 99.7267 55.3613" stroke="#591300" stroke-miterlimit="10"/>
<path d="M97.6428 56.1182C98.131 56.1182 98.5267 55.7208 98.5267 55.2307C98.5267 54.7406 98.131 54.3433 97.6428 54.3433C97.1545 54.3433 96.7588 54.7406 96.7588 55.2307C96.7588 55.7208 97.1545 56.1182 97.6428 56.1182Z" fill="#591300"/>
<path d="M101.827 69.5215C103.114 69.8349 104.427 69.4884 105.255 68.9338" stroke="#591300" stroke-miterlimit="10"/>
<path d="M100.535 52.7207C103.135 53.1074 98.4559 61.8206 100.112 62.8399C100.709 63.3343 102.39 63.1599 103.135 63.0694" stroke="#591300" stroke-miterlimit="10"/>
<path d="M49.925 106.582L49.7402 106.849L48.9053 106.211C54.8484 99.1993 61.3541 88.4751 58.728 76.236C57.8029 71.9497 55.8396 67.9785 53.0214 64.5404L53.7593 63.9568C56.7782 67.4122 58.8413 71.6347 59.866 76.1722C62.4416 88.5283 55.9186 99.4533 49.925 106.582Z" fill="#8725E8"/>
<path d="M24.3637 41.9934L27.6513 41.436L27.3206 39.4279C26.4236 39.4249 25.4655 39.1464 24.8103 38.5403C24.0664 37.9251 23.6164 37.0711 23.5306 36.165C23.4448 35.2589 23.6345 34.2915 24.161 33.5385C24.6874 32.7854 25.4619 32.2374 26.3771 32.0628C26.8394 31.9311 27.372 31.9862 27.8067 32.1208C28.2414 32.2555 28.7649 32.3993 29.0925 32.7024C29.9251 33.3268 30.464 34.19 30.6294 35.194C30.6202 35.2828 30.611 35.3716 30.6018 35.4604C30.5926 35.5491 30.4947 35.6287 30.4947 35.6287C30.3967 35.7083 30.3967 35.7083 30.308 35.6991C30.2192 35.69 30.1304 35.6808 30.1304 35.6808C30.0416 35.6716 29.962 35.5737 29.962 35.5737C29.8824 35.4757 29.8824 35.4757 29.8916 35.3869C29.8395 35.0227 29.6987 34.6492 29.4599 34.3554C29.2211 34.0615 28.9823 33.7677 28.6456 33.5534C28.2293 33.2412 27.7058 33.0974 27.1731 33.0423C26.6405 32.9872 26.0803 33.1985 25.6977 33.4281C25.2171 33.7373 24.9049 34.1537 24.6723 34.668C24.4397 35.1823 24.3846 35.7149 24.4183 36.2567C24.5225 36.9853 24.8929 37.7414 25.5664 38.1699C25.9032 38.3841 26.2399 38.5984 26.595 38.6351C26.9501 38.6718 27.3052 38.7085 27.6695 38.6564L27.945 38.5952C27.945 38.5952 27.945 38.5952 28.0338 38.6044C28.0338 38.6044 28.0338 38.6044 28.1225 38.6136C28.1225 38.6136 28.1225 38.6135 28.2113 38.6227C28.2113 38.6227 28.2113 38.6227 28.2021 38.7115L28.637 41.4481L31.9247 40.8908C32.0135 40.8999 32.191 40.9183 32.2706 41.0162C32.3502 41.1142 32.4298 41.2121 32.4206 41.3009C32.4114 41.3897 32.3931 41.5672 32.3839 41.656C32.3747 41.7448 32.286 41.7356 32.2768 41.8244C32.188 41.8152 32.1788 41.904 32.0901 41.8948L24.6883 43.1933C24.5995 43.1842 24.5995 43.1842 24.5107 43.175C24.4219 43.1658 24.4219 43.1658 24.3423 43.0678C24.2627 42.9699 24.1831 42.8719 24.1923 42.7832C24.2015 42.6944 24.2198 42.5168 24.229 42.4281C24.1769 42.0638 24.2657 42.073 24.3637 41.9934Z" fill="#231F20"/>
<path d="M22.8597 42.6455C23.4171 45.9332 26.2336 48.1982 29.2457 47.702C32.2579 47.2059 34.1954 44.0864 33.6288 40.8875C40.8439 39.6594 47.5696 44.0333 53.7503 46.7358L50.8613 55.589L44.5674 54.8487L48.6346 78.8662L34.933 81.2183L21.2314 83.5704L17.1642 59.5528L11.4891 62.3756L5.20703 55.4456C10.0096 50.6484 15.6447 43.8736 22.8597 42.6455Z" fill="#8725E8"/>
<path d="M38.2691 59.9619C38.2392 54.1041 31.8017 55.1795 31.3183 59.4086C28.5872 54.7892 22.9739 57.8572 25.0286 62.3989C26.8007 66.1808 32.8132 67.9701 32.8132 67.9701C32.8132 67.9701 37.9767 64.1715 38.2691 59.9619Z" fill="white"/>
</svg>
